<?xml version="1.0" encoding="utf-8"?>
<!-- Generator: Adobe Illustrator 16.0.0, SVG Export Plug-In . SVG Version: 6.00 Build 0)  -->
<!DOCTYPE svg PUBLIC "-//W3C//DTD SVG 1.1//EN" "http://www.w3.org/Graphics/SVG/1.1/DTD/svg11.dtd">
<svg version="1.1" xmlns="http://www.w3.org/2000/svg" xmlns:xlink="http://www.w3.org/1999/xlink" x="0px" y="0px"
	 width="41.889px" height="5.875px" viewBox="0 0 41.889 5.875" enable-background="new 0 0 41.889 5.875" xml:space="preserve">
<g>
	<line fill="none" stroke="#000000" stroke-width="0.3" x1="0.155" y1="-45.467" x2="0.155" y2="-9.467"/>
	<line fill="none" stroke="#000000" stroke-width="0.3" x1="-53.845" y1="8.533" x2="-17.845" y2="8.533"/>
	<line fill="none" stroke="#000000" stroke-width="0.3" x1="-53.845" y1="15.191" x2="-17.845" y2="15.191"/>
	<line fill="none" stroke="#000000" stroke-width="0.3" x1="0.155" y1="69.191" x2="0.155" y2="33.191"/>
	<line fill="none" stroke="#000000" stroke-width="0.3" x1="42.576" y1="-45.467" x2="42.576" y2="-9.467"/>
	<line fill="none" stroke="#000000" stroke-width="0.3" x1="96.576" y1="8.533" x2="60.576" y2="8.533"/>
	<line fill="none" stroke="#000000" stroke-width="0.3" x1="96.576" y1="15.191" x2="60.576" y2="15.191"/>
	<line fill="none" stroke="#000000" stroke-width="0.3" x1="42.576" y1="69.191" x2="42.576" y2="33.191"/>
</g>
<path fill="none" stroke="#ffc123" stroke-width="2.5" stroke-miterlimit="10" d="M41.889,1.408c-1.258,0-2.381,0.506-3.18,1.207
	c-0.943,0.826-1.566,1.852-3.801,1.852c-2.236,0-2.896-1.025-3.84-1.852c-0.799-0.701-1.887-1.207-3.143-1.207
	c-1.258,0-2.34,0.506-3.139,1.207c-0.943,0.826-1.609,1.852-3.844,1.852s-2.854-1.025-3.797-1.852
	c-0.797-0.701-1.928-1.207-3.184-1.207s-2.33,0.506-3.129,1.207C9.895,3.441,9.215,4.466,6.982,4.466
	c-2.236,0-2.91-1.025-3.852-1.852C2.332,1.914,1.258,1.408,0,1.408"/>
</svg>
